<svg width="249" height="249" viewBox="0 0 249 249" fill="none" xmlns="http://www.w3.org/2000/svg">
<circle cx="124.5" cy="124.5" r="124.5" fill="#EDF4FC"/>
<ellipse cx="124.5" cy="125" rx="108.5" ry="109" fill="#E3EAFD"/>
<circle cx="124.5" cy="124.5" r="92.5" fill="#0F76FF"/>
<path d="M156.815 93.4131C159.625 90.3694 164.369 90.1798 167.413 92.9893C170.457 95.7988 170.646 100.543 167.837 103.587L118.012 157.565C115.202 160.609 110.457 160.799 107.413 157.989C107.23 157.821 107.059 157.645 106.896 157.463C106.872 157.437 106.846 157.411 106.821 157.385L81.9834 130.419C79.1773 127.372 79.3725 122.628 82.4189 119.821C85.4656 117.015 90.2104 117.209 93.0166 120.256L112.505 141.414L156.815 93.4131Z" fill="white"/>
</svg>
