<svg width="24" height="24" viewBox="0 0 24 24" fill="none" xmlns="http://www.w3.org/2000/svg">
    <mask id="mask0_104_1204" style="mask-type:alpha" maskUnits="userSpaceOnUse" x="0" y="0" width="24" height="24">
        <rect width="24" height="24" fill="#D9D9D9"/>
    </mask>
    <g mask="url(#mask0_104_1204)">
        <path d="M8.48748 21.2875C7.39581 20.8125 6.44581 20.1708 5.63748 19.3625C4.82914 18.5541 4.18748 17.6041 3.71248 16.5125C3.23748 15.4208 2.99998 14.25 2.99998 13C2.99998 11.75 3.23748 10.5791 3.71248 9.48748C4.18748 8.39581 4.82914 7.44581 5.63748 6.63748C6.44581 5.82914 7.39581 5.18748 8.48748 4.71248C9.57914 4.23748 10.75 3.99998 12 3.99998C13.25 3.99998 14.4208 4.23748 15.5125 4.71248C16.6041 5.18748 17.5541 5.82914 18.3625 6.63748C19.1708 7.44581 19.8125 8.39581 20.2875 9.48748C20.7625 10.5791 21 11.75 21 13C21 14.25 20.7625 15.4208 20.2875 16.5125C19.8125 17.6041 19.1708 18.5541 18.3625 19.3625C17.5541 20.1708 16.6041 20.8125 15.5125 21.2875C14.4208 21.7625 13.25 22 12 22C10.75 22 9.57914 21.7625 8.48748 21.2875ZM14.8 17.2L16.2 15.8L13 12.6V7.99998H11V13.4L14.8 17.2ZM5.59998 2.34998L6.99998 3.74998L2.74998 7.99998L1.34998 6.59998L5.59998 2.34998ZM18.4 2.34998L22.65 6.59998L21.25 7.99998L17 3.74998L18.4 2.34998ZM12 20C13.95 20 15.6041 19.3208 16.9625 17.9625C18.3208 16.6041 19 14.95 19 13C19 11.05 18.3208 9.39581 16.9625 8.03748C15.6041 6.67914 13.95 5.99998 12 5.99998C10.05 5.99998 8.39581 6.67914 7.03748 8.03748C5.67914 9.39581 4.99998 11.05 4.99998 13C4.99998 14.95 5.67914 16.6041 7.03748 17.9625C8.39581 19.3208 10.05 20 12 20Z" fill="currentColor"/>
    </g>
</svg>
