<svg width="173" height="235" viewBox="0 0 173 235" fill="none" xmlns="http://www.w3.org/2000/svg">
<path d="M10.4004 4L12.8432 11.0571L19.9004 13.5L12.8432 15.9429L10.4004 23L7.95753 15.9429L0.900391 13.5L7.95753 11.0571L10.4004 4Z" fill="#FEC449" stroke="#FEC449" stroke-width="1.8" stroke-linecap="round" stroke-linejoin="round"/>
<path d="M101.4 166L103.843 173.057L110.9 175.5L103.843 177.943L101.4 185L98.9575 177.943L91.9004 175.5L98.9575 173.057L101.4 166Z" fill="#FEC449" stroke="#FEC449" stroke-width="1.8" stroke-linecap="round" stroke-linejoin="round"/>
<path d="M35.4004 91L37.8432 98.0571L44.9004 100.5L37.8432 102.943L35.4004 110L32.9575 102.943L25.9004 100.5L32.9575 98.0571L35.4004 91Z" fill="#49A9FF" stroke="#49A9FF" stroke-width="1.8" stroke-linecap="round" stroke-linejoin="round"/>
<circle cx="14.4004" cy="202.5" r="3.5" fill="#87E3C4"/>
<circle cx="169.9" cy="201" r="3" fill="#87E3C4"/>
<circle cx="160.9" cy="144" r="3" fill="#FFCA53"/>
<circle cx="60.9004" cy="58" r="4" fill="#B487FE"/>
<circle cx="27.4004" cy="158.5" r="3.5" fill="#A5C5FE"/>
<path fill-rule="evenodd" clip-rule="evenodd" d="M68.9824 218.069C71.5342 215.955 75.3166 216.31 77.4305 218.862L79.0015 220.758C81.1155 223.31 80.7604 227.092 78.2085 229.206L76.3121 230.777C73.7602 232.891 69.9779 232.536 67.864 229.984L66.2929 228.088C64.179 225.536 64.5341 221.754 67.086 219.64L68.9824 218.069ZM75.1356 221.248C74.0786 219.972 72.187 219.795 70.9111 220.852L69.1381 222.321C67.8626 223.378 67.6848 225.269 68.7414 226.545L70.1453 228.238C71.2022 229.514 73.0929 229.692 74.3689 228.635L76.1422 227.166C77.418 226.109 77.5955 224.218 76.5385 222.942L75.1356 221.248Z" fill="#57AEFE"/>
<path d="M102.4 0C106.543 0 109.9 3.35786 109.9 7.5C109.9 11.6421 106.543 15 102.4 15C98.2583 15 94.9004 11.6421 94.9004 7.5C94.9004 3.35786 98.2583 0 102.4 0ZM102.4 3C99.9151 3 97.9004 5.01472 97.9004 7.5C97.9004 9.98528 99.9151 12 102.4 12C104.886 12 106.9 9.98528 106.9 7.5C106.9 5.01472 104.886 3 102.4 3Z" fill="#4CA6FC"/>
<rect x="95.9004" y="114" width="3" height="6" fill="#74E0C0"/>
<path d="M96.4004 111C97.7811 111 98.9004 112.119 98.9004 113.5C98.9004 114.317 98.5065 115.04 97.9004 115.496V116.05C99.0415 116.281 99.9004 117.291 99.9004 118.5C99.9004 119.881 98.7811 121 97.4004 121C96.8362 121 96.3178 120.81 95.8994 120.495C95.8994 120.497 95.9004 120.498 95.9004 120.5C95.9004 121.881 94.7811 123 93.4004 123C92.1909 123 91.1818 122.141 90.9502 121H90.9004V117.949C89.7593 117.718 88.9004 116.709 88.9004 115.5C88.9004 114.119 90.0197 113 91.4004 113C92.2174 113 92.9403 113.394 93.3965 114H93.9502C93.9174 113.838 93.9004 113.671 93.9004 113.5C93.9004 112.119 95.0197 111 96.4004 111ZM94.4004 116C93.572 116 92.9004 116.672 92.9004 117.5C92.9004 118.328 93.572 119 94.4004 119C95.2288 119 95.9004 118.328 95.9004 117.5C95.9004 116.672 95.2288 116 94.4004 116Z" fill="#74E0C0"/>
</svg>
