<svg width="181" height="243" viewBox="0 0 181 243" fill="none" xmlns="http://www.w3.org/2000/svg">
<path d="M66.9185 159.847C66.9185 159.847 70.8828 176.081 87.8827 180.442L101.526 171.999C101.526 171.999 90.3659 171.148 80.0526 155.692L66.9185 159.847Z" fill="#67ADF5"/>
<path d="M138.9 49L142.5 59.4L152.9 63L142.5 66.6L138.9 77L135.3 66.6L124.9 63L135.3 59.4L138.9 49Z" fill="#FEC449" stroke="#FEC449" stroke-width="1.8" stroke-linecap="round" stroke-linejoin="round"/>
<path d="M8.40039 112L10.329 117.571L15.9004 119.5L10.329 121.429L8.40039 127L6.47182 121.429L0.900391 119.5L6.47182 117.571L8.40039 112Z" fill="#FEC449" stroke="#FEC449" stroke-width="1.8" stroke-linecap="round" stroke-linejoin="round"/>
<path d="M71.4004 82L73.329 87.5714L78.9004 89.5L73.329 91.4286L71.4004 97L69.4718 91.4286L63.9004 89.5L69.4718 87.5714L71.4004 82Z" fill="#58D8AD" stroke="#58D8AD" stroke-width="1.8" stroke-linecap="round" stroke-linejoin="round"/>
<path d="M140.9 137L142.443 141.457L146.9 143L142.443 144.543L140.9 149L139.358 144.543L134.9 143L139.358 141.457L140.9 137Z" fill="#B888F8" stroke="#B888F8" stroke-width="1.8" stroke-linecap="round" stroke-linejoin="round"/>
<path d="M172.4 227L174.329 232.571L179.9 234.5L174.329 236.429L172.4 242L170.472 236.429L164.9 234.5L170.472 232.571L172.4 227Z" fill="#58D8AD" stroke="#58D8AD" stroke-width="1.8" stroke-linecap="round" stroke-linejoin="round"/>
<circle cx="128.9" cy="4" r="4" fill="#77E3BE"/>
<circle cx="170.9" cy="24" r="4" fill="#A6C6FF"/>
<circle cx="162.4" cy="196.5" r="3.5" fill="#53A6F4"/>
<circle cx="36.9004" cy="207" r="3" fill="#87E3C4"/>
<circle cx="110.4" cy="226.5" r="3.5" fill="#FEC34B"/>
<path d="M60.7275 17.3291C63.8603 16.249 67.2754 17.9132 68.3555 21.0459L69.6592 24.8271C70.7393 27.9599 69.0751 31.375 65.9424 32.4551L62.1611 33.7588C59.0284 34.8388 55.6133 33.1747 54.5332 30.042L53.2295 26.2607C52.1494 23.128 53.8135 19.7129 56.9463 18.6328L60.7275 17.3291ZM65.1533 22.9248C64.6133 21.3584 62.9052 20.5264 61.3389 21.0664L58.3291 22.1045C56.7627 22.6445 55.9307 24.3526 56.4707 25.9189L57.4707 28.8213C58.0107 30.3877 59.7188 31.2197 61.2852 30.6797L64.2959 29.6416C65.8621 29.1015 66.6941 27.3944 66.1543 25.8281L65.1533 22.9248Z" fill="#B082EE"/>
</svg>
